<?xml version="1.0" encoding="UTF-8" standalone="no"?><svg xmlns="http://www.w3.org/2000/svg" xmlns:xlink="http://www.w3.org/1999/xlink" contentStyleType="text/css" height="439px" preserveAspectRatio="none" style="width:315px;height:439px;background:#FFFFFF;" version="1.1" viewBox="0 0 315 439" width="315px" zoomAndPan="magnify"><defs/><g><rect fill="none" height="26.2969" id="_title" style="stroke:none;stroke-width:1.0;" width="262" x="28.25" y="10"/><text fill="#000000" font-family="sans-serif" font-size="14" font-weight="bold" lengthAdjust="spacing" textLength="252" x="33.25" y="27.9951">Login; Modify user data; Logout</text><rect fill="none" height="75.3984" style="stroke:#000000;stroke-width:1.5;" width="299.5" x="10" y="90.5938"/><rect fill="none" height="133.6641" style="stroke:#000000;stroke-width:1.5;" width="299.5" x="10" y="179.9922"/><rect fill="none" height="59.2656" style="stroke:#000000;stroke-width:1.5;" width="185.5" x="10" y="327.6563"/><line style="stroke:#181818;stroke-width:0.5;stroke-dasharray:5.0,5.0;" x1="46" x2="46" y1="73.5938" y2="403.9219"/><line style="stroke:#181818;stroke-width:0.5;stroke-dasharray:5.0,5.0;" x1="270.5" x2="270.5" y1="73.5938" y2="403.9219"/><rect fill="#E2E2F0" height="30.2969" rx="2.5" ry="2.5" style="stroke:#181818;stroke-width:0.5;" width="53" x="20" y="42.2969"/><text fill="#000000" font-family="sans-serif" font-size="14" lengthAdjust="spacing" textLength="39" x="27" y="62.292">Client</text><rect fill="#E2E2F0" height="30.2969" rx="2.5" ry="2.5" style="stroke:#181818;stroke-width:0.5;" width="53" x="20" y="402.9219"/><text fill="#000000" font-family="sans-serif" font-size="14" lengthAdjust="spacing" textLength="39" x="27" y="422.917">Client</text><rect fill="#E2E2F0" height="30.2969" rx="2.5" ry="2.5" style="stroke:#181818;stroke-width:0.5;" width="58" x="241.5" y="42.2969"/><text fill="#000000" font-family="sans-serif" font-size="14" lengthAdjust="spacing" textLength="44" x="248.5" y="62.292">Server</text><rect fill="#E2E2F0" height="30.2969" rx="2.5" ry="2.5" style="stroke:#181818;stroke-width:0.5;" width="58" x="241.5" y="402.9219"/><text fill="#000000" font-family="sans-serif" font-size="14" lengthAdjust="spacing" textLength="44" x="248.5" y="422.917">Server</text><path d="M10,90.5938 L91,90.5938 L91,97.7266 L81,107.7266 L10,107.7266 L10,90.5938 " fill="#EEEEEE" style="stroke:#000000;stroke-width:1.5;"/><rect fill="none" height="75.3984" style="stroke:#000000;stroke-width:1.5;" width="299.5" x="10" y="90.5938"/><text fill="#000000" font-family="sans-serif" font-size="13" font-weight="bold" lengthAdjust="spacing" textLength="36" x="25" y="103.6606">login</text><polygon fill="#181818" points="258.5,124.8594,268.5,128.8594,258.5,132.8594,262.5,128.8594" style="stroke:#181818;stroke-width:1.0;"/><line style="stroke:#181818;stroke-width:1.0;" x1="46.5" x2="264.5" y1="128.8594" y2="128.8594"/><text fill="#000000" font-family="sans-serif" font-size="13" lengthAdjust="spacing" textLength="170" x="53.5" y="123.7935">Login with valid credentials</text><polygon fill="#181818" points="57.5,153.9922,47.5,157.9922,57.5,161.9922,53.5,157.9922" style="stroke:#181818;stroke-width:1.0;"/><line style="stroke:#181818;stroke-width:1.0;" x1="51.5" x2="269.5" y1="157.9922" y2="157.9922"/><text fill="#000000" font-family="sans-serif" font-size="13" lengthAdjust="spacing" textLength="139" x="63.5" y="152.9263">Provide session token</text><path d="M10,179.9922 L128,179.9922 L128,187.125 L118,197.125 L10,197.125 L10,179.9922 " fill="#EEEEEE" style="stroke:#000000;stroke-width:1.5;"/><rect fill="none" height="133.6641" style="stroke:#000000;stroke-width:1.5;" width="299.5" x="10" y="179.9922"/><text fill="#000000" font-family="sans-serif" font-size="13" font-weight="bold" lengthAdjust="spacing" textLength="73" x="25" y="193.0591">user_data</text><polygon fill="#181818" points="258.5,214.2578,268.5,218.2578,258.5,222.2578,262.5,218.2578" style="stroke:#181818;stroke-width:1.0;"/><line style="stroke:#181818;stroke-width:1.0;" x1="46.5" x2="264.5" y1="218.2578" y2="218.2578"/><text fill="#000000" font-family="sans-serif" font-size="13" lengthAdjust="spacing" textLength="116" x="53.5" y="213.1919">Asks for user data</text><polygon fill="#181818" points="57.5,243.3906,47.5,247.3906,57.5,251.3906,53.5,247.3906" style="stroke:#181818;stroke-width:1.0;"/><line style="stroke:#181818;stroke-width:1.0;" x1="51.5" x2="269.5" y1="247.3906" y2="247.3906"/><text fill="#000000" font-family="sans-serif" font-size="13" lengthAdjust="spacing" textLength="193" x="63.5" y="242.3247">Populates page with user data</text><polygon fill="#181818" points="258.5,272.5234,268.5,276.5234,258.5,280.5234,262.5,276.5234" style="stroke:#181818;stroke-width:1.0;"/><line style="stroke:#181818;stroke-width:1.0;" x1="46.5" x2="264.5" y1="276.5234" y2="276.5234"/><text fill="#000000" font-family="sans-serif" font-size="13" lengthAdjust="spacing" textLength="200" x="53.5" y="271.4575">Submits user data modification</text><polygon fill="#181818" points="57.5,301.6563,47.5,305.6563,57.5,309.6563,53.5,305.6563" style="stroke:#181818;stroke-width:1.0;"/><line style="stroke:#181818;stroke-width:1.0;" x1="51.5" x2="269.5" y1="305.6563" y2="305.6563"/><text fill="#000000" font-family="sans-serif" font-size="13" lengthAdjust="spacing" textLength="160" x="63.5" y="300.5903">Sends acknowledgement</text><path d="M10,327.6563 L102,327.6563 L102,334.7891 L92,344.7891 L10,344.7891 L10,327.6563 " fill="#EEEEEE" style="stroke:#000000;stroke-width:1.5;"/><rect fill="none" height="59.2656" style="stroke:#000000;stroke-width:1.5;" width="185.5" x="10" y="327.6563"/><text fill="#000000" font-family="sans-serif" font-size="13" font-weight="bold" lengthAdjust="spacing" textLength="47" x="25" y="340.7231">logout</text><line style="stroke:#181818;stroke-width:1.0;" x1="46.5" x2="88.5" y1="365.9219" y2="365.9219"/><line style="stroke:#181818;stroke-width:1.0;" x1="88.5" x2="88.5" y1="365.9219" y2="378.9219"/><line style="stroke:#181818;stroke-width:1.0;" x1="47.5" x2="88.5" y1="378.9219" y2="378.9219"/><polygon fill="#181818" points="57.5,374.9219,47.5,378.9219,57.5,382.9219,53.5,378.9219" style="stroke:#181818;stroke-width:1.0;"/><text fill="#000000" font-family="sans-serif" font-size="13" lengthAdjust="spacing" textLength="130" x="53.5" y="360.856">Drops session token</text><!--MD5=[f7912594a1e19208579e8dd812aa93c0]
@startuml workflow_1

title Login; Modify user data; Logout

group login
Client -> Server: Login with valid credentials
Server -> Client: Provide session token
end

group user_data
Client -> Server: Asks for user data
Server -> Client: Populates page with user data
Client -> Server: Submits user data modification
Server -> Client: Sends acknowledgement
end

group logout
Client -> Client: Drops session token
end

@enduml

PlantUML version 1.2022.7(Mon Aug 22 13:01:30 EDT 2022)
(GPL source distribution)
Java Runtime: OpenJDK Runtime Environment
JVM: OpenJDK 64-Bit Server VM
Default Encoding: UTF-8
Language: en
Country: null
--></g></svg>