<?xml version="1.0" encoding="UTF-8" standalone="no"?><svg xmlns="http://www.w3.org/2000/svg" xmlns:xlink="http://www.w3.org/1999/xlink" contentStyleType="text/css" height="719px" preserveAspectRatio="none" style="width:308px;height:719px;background:#FFFFFF;" version="1.1" viewBox="0 0 308 719" width="308px" zoomAndPan="magnify"><defs/><g><rect fill="none" height="42.5938" id="_title" style="stroke:none;stroke-width:1.0;" width="251" x="30.25" y="10"/><text fill="#000000" font-family="sans-serif" font-size="14" font-weight="bold" lengthAdjust="spacing" textLength="241" x="35.25" y="27.9951">Login; Attempts matchmaking;</text><text fill="#000000" font-family="sans-serif" font-size="14" font-weight="bold" lengthAdjust="spacing" textLength="157" x="77.25" y="44.292">Gets game; Forfeits</text><rect fill="none" height="75.3984" style="stroke:#000000;stroke-width:1.5;" width="292.5" x="10" y="106.8906"/><rect fill="none" height="191.9297" style="stroke:#000000;stroke-width:1.5;" width="292.5" x="10" y="196.2891"/><rect fill="none" height="191.9297" style="stroke:#000000;stroke-width:1.5;" width="292.5" x="10" y="402.2188"/><rect fill="none" height="59.2656" style="stroke:#000000;stroke-width:1.5;" width="185.5" x="10" y="608.1484"/><line style="stroke:#181818;stroke-width:0.5;stroke-dasharray:5.0,5.0;" x1="46" x2="46" y1="89.8906" y2="684.4141"/><line style="stroke:#181818;stroke-width:0.5;stroke-dasharray:5.0,5.0;" x1="263.5" x2="263.5" y1="89.8906" y2="684.4141"/><rect fill="#E2E2F0" height="30.2969" rx="2.5" ry="2.5" style="stroke:#181818;stroke-width:0.5;" width="53" x="20" y="58.5938"/><text fill="#000000" font-family="sans-serif" font-size="14" lengthAdjust="spacing" textLength="39" x="27" y="78.5889">Client</text><rect fill="#E2E2F0" height="30.2969" rx="2.5" ry="2.5" style="stroke:#181818;stroke-width:0.5;" width="53" x="20" y="683.4141"/><text fill="#000000" font-family="sans-serif" font-size="14" lengthAdjust="spacing" textLength="39" x="27" y="703.4092">Client</text><rect fill="#E2E2F0" height="30.2969" rx="2.5" ry="2.5" style="stroke:#181818;stroke-width:0.5;" width="58" x="234.5" y="58.5938"/><text fill="#000000" font-family="sans-serif" font-size="14" lengthAdjust="spacing" textLength="44" x="241.5" y="78.5889">Server</text><rect fill="#E2E2F0" height="30.2969" rx="2.5" ry="2.5" style="stroke:#181818;stroke-width:0.5;" width="58" x="234.5" y="683.4141"/><text fill="#000000" font-family="sans-serif" font-size="14" lengthAdjust="spacing" textLength="44" x="241.5" y="703.4092">Server</text><path d="M10,106.8906 L91,106.8906 L91,114.0234 L81,124.0234 L10,124.0234 L10,106.8906 " fill="#EEEEEE" style="stroke:#000000;stroke-width:1.5;"/><rect fill="none" height="75.3984" style="stroke:#000000;stroke-width:1.5;" width="292.5" x="10" y="106.8906"/><text fill="#000000" font-family="sans-serif" font-size="13" font-weight="bold" lengthAdjust="spacing" textLength="36" x="25" y="119.9575">login</text><polygon fill="#181818" points="251.5,141.1563,261.5,145.1563,251.5,149.1563,255.5,145.1563" style="stroke:#181818;stroke-width:1.0;"/><line style="stroke:#181818;stroke-width:1.0;" x1="46.5" x2="257.5" y1="145.1563" y2="145.1563"/><text fill="#000000" font-family="sans-serif" font-size="13" lengthAdjust="spacing" textLength="170" x="53.5" y="140.0903">Login with valid credentials</text><polygon fill="#181818" points="57.5,170.2891,47.5,174.2891,57.5,178.2891,53.5,174.2891" style="stroke:#181818;stroke-width:1.0;"/><line style="stroke:#181818;stroke-width:1.0;" x1="51.5" x2="262.5" y1="174.2891" y2="174.2891"/><text fill="#000000" font-family="sans-serif" font-size="13" lengthAdjust="spacing" textLength="139" x="63.5" y="169.2231">Provide session token</text><path d="M10,196.2891 L156,196.2891 L156,203.4219 L146,213.4219 L10,213.4219 L10,196.2891 " fill="#EEEEEE" style="stroke:#000000;stroke-width:1.5;"/><rect fill="none" height="191.9297" style="stroke:#000000;stroke-width:1.5;" width="292.5" x="10" y="196.2891"/><text fill="#000000" font-family="sans-serif" font-size="13" font-weight="bold" lengthAdjust="spacing" textLength="101" x="25" y="209.356">matchmaking</text><polygon fill="#181818" points="251.5,230.5547,261.5,234.5547,251.5,238.5547,255.5,234.5547" style="stroke:#181818;stroke-width:1.0;"/><line style="stroke:#181818;stroke-width:1.0;" x1="46.5" x2="257.5" y1="234.5547" y2="234.5547"/><text fill="#000000" font-family="sans-serif" font-size="13" lengthAdjust="spacing" textLength="183" x="53.5" y="229.4888">Request matchmaking ticket</text><polygon fill="#181818" points="57.5,259.6875,47.5,263.6875,57.5,267.6875,53.5,263.6875" style="stroke:#181818;stroke-width:1.0;"/><line style="stroke:#181818;stroke-width:1.0;" x1="51.5" x2="262.5" y1="263.6875" y2="263.6875"/><text fill="#000000" font-family="sans-serif" font-size="13" lengthAdjust="spacing" textLength="164" x="63.5" y="258.6216">Send matchmaking ticket</text><polygon fill="#181818" points="251.5,288.8203,261.5,292.8203,251.5,296.8203,255.5,292.8203" style="stroke:#181818;stroke-width:1.0;"/><line style="stroke:#181818;stroke-width:1.0;" x1="46.5" x2="257.5" y1="292.8203" y2="292.8203"/><text fill="#000000" font-family="sans-serif" font-size="13" lengthAdjust="spacing" textLength="130" x="53.5" y="287.7544">Polls for update (xN)</text><polygon fill="#181818" points="57.5,317.9531,47.5,321.9531,57.5,325.9531,53.5,321.9531" style="stroke:#181818;stroke-width:1.0;"/><line style="stroke:#181818;stroke-width:1.0;" x1="51.5" x2="262.5" y1="321.9531" y2="321.9531"/><text fill="#000000" font-family="sans-serif" font-size="13" lengthAdjust="spacing" textLength="193" x="63.5" y="316.8872">Sends waiting notification (xN)</text><polygon fill="#181818" points="251.5,347.0859,261.5,351.0859,251.5,355.0859,255.5,351.0859" style="stroke:#181818;stroke-width:1.0;"/><line style="stroke:#181818;stroke-width:1.0;" x1="46.5" x2="257.5" y1="351.0859" y2="351.0859"/><text fill="#000000" font-family="sans-serif" font-size="13" lengthAdjust="spacing" textLength="99" x="53.5" y="346.02">Polls for update</text><polygon fill="#181818" points="57.5,376.2188,47.5,380.2188,57.5,384.2188,53.5,380.2188" style="stroke:#181818;stroke-width:1.0;"/><line style="stroke:#181818;stroke-width:1.0;" x1="51.5" x2="262.5" y1="380.2188" y2="380.2188"/><text fill="#000000" font-family="sans-serif" font-size="13" lengthAdjust="spacing" textLength="128" x="63.5" y="375.1528">Sends game handle</text><path d="M10,402.2188 L116,402.2188 L116,409.3516 L106,419.3516 L10,419.3516 L10,402.2188 " fill="#EEEEEE" style="stroke:#000000;stroke-width:1.5;"/><rect fill="none" height="191.9297" style="stroke:#000000;stroke-width:1.5;" width="292.5" x="10" y="402.2188"/><text fill="#000000" font-family="sans-serif" font-size="13" font-weight="bold" lengthAdjust="spacing" textLength="61" x="25" y="415.2856">game_ff</text><polygon fill="#181818" points="251.5,436.4844,261.5,440.4844,251.5,444.4844,255.5,440.4844" style="stroke:#181818;stroke-width:1.0;"/><line style="stroke:#181818;stroke-width:1.0;" x1="46.5" x2="257.5" y1="440.4844" y2="440.4844"/><text fill="#000000" font-family="sans-serif" font-size="13" lengthAdjust="spacing" textLength="145" x="53.5" y="435.4185">Polls game status (xN)</text><polygon fill="#181818" points="57.5,465.6172,47.5,469.6172,57.5,473.6172,53.5,469.6172" style="stroke:#181818;stroke-width:1.0;"/><line style="stroke:#181818;stroke-width:1.0;" x1="51.5" x2="262.5" y1="469.6172" y2="469.6172"/><text fill="#000000" font-family="sans-serif" font-size="13" lengthAdjust="spacing" textLength="193" x="63.5" y="464.5513">Sends waiting notification (xN)</text><polygon fill="#181818" points="251.5,494.75,261.5,498.75,251.5,502.75,255.5,498.75" style="stroke:#181818;stroke-width:1.0;"/><line style="stroke:#181818;stroke-width:1.0;" x1="46.5" x2="257.5" y1="498.75" y2="498.75"/><text fill="#000000" font-family="sans-serif" font-size="13" lengthAdjust="spacing" textLength="114" x="53.5" y="493.6841">Polls game status</text><polygon fill="#181818" points="57.5,523.8828,47.5,527.8828,57.5,531.8828,53.5,527.8828" style="stroke:#181818;stroke-width:1.0;"/><line style="stroke:#181818;stroke-width:1.0;" x1="51.5" x2="262.5" y1="527.8828" y2="527.8828"/><text fill="#000000" font-family="sans-serif" font-size="13" lengthAdjust="spacing" textLength="154" x="63.5" y="522.8169">Sends move notification</text><polygon fill="#181818" points="251.5,553.0156,261.5,557.0156,251.5,561.0156,255.5,557.0156" style="stroke:#181818;stroke-width:1.0;"/><line style="stroke:#181818;stroke-width:1.0;" x1="46.5" x2="257.5" y1="557.0156" y2="557.0156"/><text fill="#000000" font-family="sans-serif" font-size="13" lengthAdjust="spacing" textLength="47" x="53.5" y="551.9497">Forfeits</text><polygon fill="#181818" points="57.5,582.1484,47.5,586.1484,57.5,590.1484,53.5,586.1484" style="stroke:#181818;stroke-width:1.0;"/><line style="stroke:#181818;stroke-width:1.0;" x1="51.5" x2="262.5" y1="586.1484" y2="586.1484"/><text fill="#000000" font-family="sans-serif" font-size="13" lengthAdjust="spacing" textLength="114" x="63.5" y="581.0825">Sends final status</text><path d="M10,608.1484 L102,608.1484 L102,615.2813 L92,625.2813 L10,625.2813 L10,608.1484 " fill="#EEEEEE" style="stroke:#000000;stroke-width:1.5;"/><rect fill="none" height="59.2656" style="stroke:#000000;stroke-width:1.5;" width="185.5" x="10" y="608.1484"/><text fill="#000000" font-family="sans-serif" font-size="13" font-weight="bold" lengthAdjust="spacing" textLength="47" x="25" y="621.2153">logout</text><line style="stroke:#181818;stroke-width:1.0;" x1="46.5" x2="88.5" y1="646.4141" y2="646.4141"/><line style="stroke:#181818;stroke-width:1.0;" x1="88.5" x2="88.5" y1="646.4141" y2="659.4141"/><line style="stroke:#181818;stroke-width:1.0;" x1="47.5" x2="88.5" y1="659.4141" y2="659.4141"/><polygon fill="#181818" points="57.5,655.4141,47.5,659.4141,57.5,663.4141,53.5,659.4141" style="stroke:#181818;stroke-width:1.0;"/><text fill="#000000" font-family="sans-serif" font-size="13" lengthAdjust="spacing" textLength="130" x="53.5" y="641.3481">Drops session token</text><!--MD5=[eb66d6f9f0c6fa938f92e4c6c524e474]
@startuml workflow_5

title Login; Attempts matchmaking;\nGets game; Forfeits

group login
Client -> Server: Login with valid credentials
Server -> Client: Provide session token
end

group matchmaking
Client -> Server: Request matchmaking ticket
Server -> Client: Send matchmaking ticket
Client -> Server: Polls for update (xN)
Server -> Client: Sends waiting notification (xN)
Client -> Server: Polls for update
Server -> Client: Sends game handle
end

group game_ff
Client -> Server: Polls game status (xN)
Server -> Client: Sends waiting notification (xN)
Client -> Server: Polls game status
Server -> Client: Sends move notification
Client -> Server: Forfeits
Server -> Client: Sends final status
end

group logout
Client -> Client: Drops session token
end

@enduml

PlantUML version 1.2022.7(Mon Aug 22 13:01:30 EDT 2022)
(GPL source distribution)
Java Runtime: OpenJDK Runtime Environment
JVM: OpenJDK 64-Bit Server VM
Default Encoding: UTF-8
Language: en
Country: null
--></g></svg>