<?xml version="1.0" encoding="UTF-8" standalone="no"?><svg xmlns="http://www.w3.org/2000/svg" xmlns:xlink="http://www.w3.org/1999/xlink" contentStyleType="text/css" height="513px" preserveAspectRatio="none" style="width:367px;height:513px;background:#FFFFFF;" version="1.1" viewBox="0 0 367 513" width="367px" zoomAndPan="magnify"><defs/><g><rect fill="none" height="42.5938" id="_title" style="stroke:none;stroke-width:1.0;" width="251" x="59.75" y="10"/><text fill="#000000" font-family="sans-serif" font-size="14" font-weight="bold" lengthAdjust="spacing" textLength="241" x="64.75" y="27.9951">Login; Attempts matchmaking;</text><text fill="#000000" font-family="sans-serif" font-size="14" font-weight="bold" lengthAdjust="spacing" textLength="198" x="86.25" y="44.292">Gets game; Stops polling</text><rect fill="none" height="75.3984" style="stroke:#000000;stroke-width:1.5;" width="292.5" x="10" y="106.8906"/><rect fill="none" height="191.9297" style="stroke:#000000;stroke-width:1.5;" width="292.5" x="10" y="196.2891"/><rect fill="none" height="59.2656" style="stroke:#000000;stroke-width:1.5;" width="137" x="224.5" y="402.2188"/><line style="stroke:#181818;stroke-width:0.5;stroke-dasharray:5.0,5.0;" x1="46" x2="46" y1="89.8906" y2="478.4844"/><line style="stroke:#181818;stroke-width:0.5;stroke-dasharray:5.0,5.0;" x1="263.5" x2="263.5" y1="89.8906" y2="478.4844"/><rect fill="#E2E2F0" height="30.2969" rx="2.5" ry="2.5" style="stroke:#181818;stroke-width:0.5;" width="53" x="20" y="58.5938"/><text fill="#000000" font-family="sans-serif" font-size="14" lengthAdjust="spacing" textLength="39" x="27" y="78.5889">Client</text><rect fill="#E2E2F0" height="30.2969" rx="2.5" ry="2.5" style="stroke:#181818;stroke-width:0.5;" width="53" x="20" y="477.4844"/><text fill="#000000" font-family="sans-serif" font-size="14" lengthAdjust="spacing" textLength="39" x="27" y="497.4795">Client</text><rect fill="#E2E2F0" height="30.2969" rx="2.5" ry="2.5" style="stroke:#181818;stroke-width:0.5;" width="58" x="234.5" y="58.5938"/><text fill="#000000" font-family="sans-serif" font-size="14" lengthAdjust="spacing" textLength="44" x="241.5" y="78.5889">Server</text><rect fill="#E2E2F0" height="30.2969" rx="2.5" ry="2.5" style="stroke:#181818;stroke-width:0.5;" width="58" x="234.5" y="477.4844"/><text fill="#000000" font-family="sans-serif" font-size="14" lengthAdjust="spacing" textLength="44" x="241.5" y="497.4795">Server</text><path d="M10,106.8906 L91,106.8906 L91,114.0234 L81,124.0234 L10,124.0234 L10,106.8906 " fill="#EEEEEE" style="stroke:#000000;stroke-width:1.5;"/><rect fill="none" height="75.3984" style="stroke:#000000;stroke-width:1.5;" width="292.5" x="10" y="106.8906"/><text fill="#000000" font-family="sans-serif" font-size="13" font-weight="bold" lengthAdjust="spacing" textLength="36" x="25" y="119.9575">login</text><polygon fill="#181818" points="251.5,141.1563,261.5,145.1563,251.5,149.1563,255.5,145.1563" style="stroke:#181818;stroke-width:1.0;"/><line style="stroke:#181818;stroke-width:1.0;" x1="46.5" x2="257.5" y1="145.1563" y2="145.1563"/><text fill="#000000" font-family="sans-serif" font-size="13" lengthAdjust="spacing" textLength="170" x="53.5" y="140.0903">Login with valid credentials</text><polygon fill="#181818" points="57.5,170.2891,47.5,174.2891,57.5,178.2891,53.5,174.2891" style="stroke:#181818;stroke-width:1.0;"/><line style="stroke:#181818;stroke-width:1.0;" x1="51.5" x2="262.5" y1="174.2891" y2="174.2891"/><text fill="#000000" font-family="sans-serif" font-size="13" lengthAdjust="spacing" textLength="139" x="63.5" y="169.2231">Provide session token</text><path d="M10,196.2891 L156,196.2891 L156,203.4219 L146,213.4219 L10,213.4219 L10,196.2891 " fill="#EEEEEE" style="stroke:#000000;stroke-width:1.5;"/><rect fill="none" height="191.9297" style="stroke:#000000;stroke-width:1.5;" width="292.5" x="10" y="196.2891"/><text fill="#000000" font-family="sans-serif" font-size="13" font-weight="bold" lengthAdjust="spacing" textLength="101" x="25" y="209.356">matchmaking</text><polygon fill="#181818" points="251.5,230.5547,261.5,234.5547,251.5,238.5547,255.5,234.5547" style="stroke:#181818;stroke-width:1.0;"/><line style="stroke:#181818;stroke-width:1.0;" x1="46.5" x2="257.5" y1="234.5547" y2="234.5547"/><text fill="#000000" font-family="sans-serif" font-size="13" lengthAdjust="spacing" textLength="183" x="53.5" y="229.4888">Request matchmaking ticket</text><polygon fill="#181818" points="57.5,259.6875,47.5,263.6875,57.5,267.6875,53.5,263.6875" style="stroke:#181818;stroke-width:1.0;"/><line style="stroke:#181818;stroke-width:1.0;" x1="51.5" x2="262.5" y1="263.6875" y2="263.6875"/><text fill="#000000" font-family="sans-serif" font-size="13" lengthAdjust="spacing" textLength="164" x="63.5" y="258.6216">Send matchmaking ticket</text><polygon fill="#181818" points="251.5,288.8203,261.5,292.8203,251.5,296.8203,255.5,292.8203" style="stroke:#181818;stroke-width:1.0;"/><line style="stroke:#181818;stroke-width:1.0;" x1="46.5" x2="257.5" y1="292.8203" y2="292.8203"/><text fill="#000000" font-family="sans-serif" font-size="13" lengthAdjust="spacing" textLength="130" x="53.5" y="287.7544">Polls for update (xN)</text><polygon fill="#181818" points="57.5,317.9531,47.5,321.9531,57.5,325.9531,53.5,321.9531" style="stroke:#181818;stroke-width:1.0;"/><line style="stroke:#181818;stroke-width:1.0;" x1="51.5" x2="262.5" y1="321.9531" y2="321.9531"/><text fill="#000000" font-family="sans-serif" font-size="13" lengthAdjust="spacing" textLength="193" x="63.5" y="316.8872">Sends waiting notification (xN)</text><polygon fill="#181818" points="251.5,347.0859,261.5,351.0859,251.5,355.0859,255.5,351.0859" style="stroke:#181818;stroke-width:1.0;"/><line style="stroke:#181818;stroke-width:1.0;" x1="46.5" x2="257.5" y1="351.0859" y2="351.0859"/><text fill="#000000" font-family="sans-serif" font-size="13" lengthAdjust="spacing" textLength="99" x="53.5" y="346.02">Polls for update</text><polygon fill="#181818" points="57.5,376.2188,47.5,380.2188,57.5,384.2188,53.5,380.2188" style="stroke:#181818;stroke-width:1.0;"/><line style="stroke:#181818;stroke-width:1.0;" x1="51.5" x2="262.5" y1="380.2188" y2="380.2188"/><text fill="#000000" font-family="sans-serif" font-size="13" lengthAdjust="spacing" textLength="128" x="63.5" y="375.1528">Sends game handle</text><path d="M224.5,402.2188 L326.5,402.2188 L326.5,409.3516 L316.5,419.3516 L224.5,419.3516 L224.5,402.2188 " fill="#EEEEEE" style="stroke:#000000;stroke-width:1.5;"/><rect fill="none" height="59.2656" style="stroke:#000000;stroke-width:1.5;" width="137" x="224.5" y="402.2188"/><text fill="#000000" font-family="sans-serif" font-size="13" font-weight="bold" lengthAdjust="spacing" textLength="57" x="239.5" y="415.2856">timeout</text><line style="stroke:#181818;stroke-width:1.0;" x1="263.5" x2="305.5" y1="440.4844" y2="440.4844"/><line style="stroke:#181818;stroke-width:1.0;" x1="305.5" x2="305.5" y1="440.4844" y2="453.4844"/><line style="stroke:#181818;stroke-width:1.0;" x1="264.5" x2="305.5" y1="453.4844" y2="453.4844"/><polygon fill="#181818" points="274.5,449.4844,264.5,453.4844,274.5,457.4844,270.5,453.4844" style="stroke:#181818;stroke-width:1.0;"/><text fill="#000000" font-family="sans-serif" font-size="13" lengthAdjust="spacing" textLength="79" x="270.5" y="435.4185">Forfeits user</text><!--MD5=[56a095e5cbc731dbd0a560c4cfa39841]
@startuml workflow_6

title Login; Attempts matchmaking;\nGets game; Stops polling

group login
Client -> Server: Login with valid credentials
Server -> Client: Provide session token
end

group matchmaking
Client -> Server: Request matchmaking ticket
Server -> Client: Send matchmaking ticket
Client -> Server: Polls for update (xN)
Server -> Client: Sends waiting notification (xN)
Client -> Server: Polls for update
Server -> Client: Sends game handle
end

group timeout
Server -> Server: Forfeits user
end

@enduml

PlantUML version 1.2022.7(Mon Aug 22 13:01:30 EDT 2022)
(GPL source distribution)
Java Runtime: OpenJDK Runtime Environment
JVM: OpenJDK 64-Bit Server VM
Default Encoding: UTF-8
Language: en
Country: null
--></g></svg>