<?xml version="1.0" encoding="UTF-8" standalone="no"?><svg xmlns="http://www.w3.org/2000/svg" xmlns:xlink="http://www.w3.org/1999/xlink" contentStyleType="text/css" height="809px" preserveAspectRatio="none" style="width:365px;height:809px;background:#FFFFFF;" version="1.1" viewBox="0 0 365 809" width="365px" zoomAndPan="magnify"><defs/><g><rect fill="none" height="42.5938" id="_title" style="stroke:none;stroke-width:1.0;" width="347" x="5" y="10"/><text fill="#000000" font-family="sans-serif" font-size="14" font-weight="bold" lengthAdjust="spacing" textLength="337" x="10" y="27.9951">Login; Attempts matchmaking; Gets game;</text><text fill="#000000" font-family="sans-serif" font-size="14" font-weight="bold" lengthAdjust="spacing" textLength="268" x="44.5" y="44.292">Plays game to completion; Logout</text><rect fill="none" height="75.3984" style="stroke:#000000;stroke-width:1.5;" width="292.5" x="32.75" y="106.8906"/><rect fill="none" height="191.9297" style="stroke:#000000;stroke-width:1.5;" width="292.5" x="32.75" y="196.2891"/><rect fill="none" height="191.9297" style="stroke:#000000;stroke-width:1.5;" width="292.5" x="32.75" y="402.2188"/><rect fill="none" height="75.3984" style="stroke:#000000;stroke-width:1.5;" width="292.5" x="32.75" y="608.1484"/><rect fill="none" height="59.2656" style="stroke:#000000;stroke-width:1.5;" width="185.5" x="32.75" y="697.5469"/><line style="stroke:#181818;stroke-width:0.5;stroke-dasharray:5.0,5.0;" x1="68.75" x2="68.75" y1="89.8906" y2="773.8125"/><line style="stroke:#181818;stroke-width:0.5;stroke-dasharray:5.0,5.0;" x1="286.25" x2="286.25" y1="89.8906" y2="773.8125"/><rect fill="#E2E2F0" height="30.2969" rx="2.5" ry="2.5" style="stroke:#181818;stroke-width:0.5;" width="53" x="42.75" y="58.5938"/><text fill="#000000" font-family="sans-serif" font-size="14" lengthAdjust="spacing" textLength="39" x="49.75" y="78.5889">Client</text><rect fill="#E2E2F0" height="30.2969" rx="2.5" ry="2.5" style="stroke:#181818;stroke-width:0.5;" width="53" x="42.75" y="772.8125"/><text fill="#000000" font-family="sans-serif" font-size="14" lengthAdjust="spacing" textLength="39" x="49.75" y="792.8076">Client</text><rect fill="#E2E2F0" height="30.2969" rx="2.5" ry="2.5" style="stroke:#181818;stroke-width:0.5;" width="58" x="257.25" y="58.5938"/><text fill="#000000" font-family="sans-serif" font-size="14" lengthAdjust="spacing" textLength="44" x="264.25" y="78.5889">Server</text><rect fill="#E2E2F0" height="30.2969" rx="2.5" ry="2.5" style="stroke:#181818;stroke-width:0.5;" width="58" x="257.25" y="772.8125"/><text fill="#000000" font-family="sans-serif" font-size="14" lengthAdjust="spacing" textLength="44" x="264.25" y="792.8076">Server</text><path d="M32.75,106.8906 L113.75,106.8906 L113.75,114.0234 L103.75,124.0234 L32.75,124.0234 L32.75,106.8906 " fill="#EEEEEE" style="stroke:#000000;stroke-width:1.5;"/><rect fill="none" height="75.3984" style="stroke:#000000;stroke-width:1.5;" width="292.5" x="32.75" y="106.8906"/><text fill="#000000" font-family="sans-serif" font-size="13" font-weight="bold" lengthAdjust="spacing" textLength="36" x="47.75" y="119.9575">login</text><polygon fill="#181818" points="274.25,141.1563,284.25,145.1563,274.25,149.1563,278.25,145.1563" style="stroke:#181818;stroke-width:1.0;"/><line style="stroke:#181818;stroke-width:1.0;" x1="69.25" x2="280.25" y1="145.1563" y2="145.1563"/><text fill="#000000" font-family="sans-serif" font-size="13" lengthAdjust="spacing" textLength="170" x="76.25" y="140.0903">Login with valid credentials</text><polygon fill="#181818" points="80.25,170.2891,70.25,174.2891,80.25,178.2891,76.25,174.2891" style="stroke:#181818;stroke-width:1.0;"/><line style="stroke:#181818;stroke-width:1.0;" x1="74.25" x2="285.25" y1="174.2891" y2="174.2891"/><text fill="#000000" font-family="sans-serif" font-size="13" lengthAdjust="spacing" textLength="139" x="86.25" y="169.2231">Provide session token</text><path d="M32.75,196.2891 L178.75,196.2891 L178.75,203.4219 L168.75,213.4219 L32.75,213.4219 L32.75,196.2891 " fill="#EEEEEE" style="stroke:#000000;stroke-width:1.5;"/><rect fill="none" height="191.9297" style="stroke:#000000;stroke-width:1.5;" width="292.5" x="32.75" y="196.2891"/><text fill="#000000" font-family="sans-serif" font-size="13" font-weight="bold" lengthAdjust="spacing" textLength="101" x="47.75" y="209.356">matchmaking</text><polygon fill="#181818" points="274.25,230.5547,284.25,234.5547,274.25,238.5547,278.25,234.5547" style="stroke:#181818;stroke-width:1.0;"/><line style="stroke:#181818;stroke-width:1.0;" x1="69.25" x2="280.25" y1="234.5547" y2="234.5547"/><text fill="#000000" font-family="sans-serif" font-size="13" lengthAdjust="spacing" textLength="183" x="76.25" y="229.4888">Request matchmaking ticket</text><polygon fill="#181818" points="80.25,259.6875,70.25,263.6875,80.25,267.6875,76.25,263.6875" style="stroke:#181818;stroke-width:1.0;"/><line style="stroke:#181818;stroke-width:1.0;" x1="74.25" x2="285.25" y1="263.6875" y2="263.6875"/><text fill="#000000" font-family="sans-serif" font-size="13" lengthAdjust="spacing" textLength="164" x="86.25" y="258.6216">Send matchmaking ticket</text><polygon fill="#181818" points="274.25,288.8203,284.25,292.8203,274.25,296.8203,278.25,292.8203" style="stroke:#181818;stroke-width:1.0;"/><line style="stroke:#181818;stroke-width:1.0;" x1="69.25" x2="280.25" y1="292.8203" y2="292.8203"/><text fill="#000000" font-family="sans-serif" font-size="13" lengthAdjust="spacing" textLength="130" x="76.25" y="287.7544">Polls for update (xN)</text><polygon fill="#181818" points="80.25,317.9531,70.25,321.9531,80.25,325.9531,76.25,321.9531" style="stroke:#181818;stroke-width:1.0;"/><line style="stroke:#181818;stroke-width:1.0;" x1="74.25" x2="285.25" y1="321.9531" y2="321.9531"/><text fill="#000000" font-family="sans-serif" font-size="13" lengthAdjust="spacing" textLength="193" x="86.25" y="316.8872">Sends waiting notification (xN)</text><polygon fill="#181818" points="274.25,347.0859,284.25,351.0859,274.25,355.0859,278.25,351.0859" style="stroke:#181818;stroke-width:1.0;"/><line style="stroke:#181818;stroke-width:1.0;" x1="69.25" x2="280.25" y1="351.0859" y2="351.0859"/><text fill="#000000" font-family="sans-serif" font-size="13" lengthAdjust="spacing" textLength="99" x="76.25" y="346.02">Polls for update</text><polygon fill="#181818" points="80.25,376.2188,70.25,380.2188,80.25,384.2188,76.25,380.2188" style="stroke:#181818;stroke-width:1.0;"/><line style="stroke:#181818;stroke-width:1.0;" x1="74.25" x2="285.25" y1="380.2188" y2="380.2188"/><text fill="#000000" font-family="sans-serif" font-size="13" lengthAdjust="spacing" textLength="128" x="86.25" y="375.1528">Sends game handle</text><path d="M32.75,402.2188 L166.75,402.2188 L166.75,409.3516 L156.75,419.3516 L32.75,419.3516 L32.75,402.2188 " fill="#EEEEEE" style="stroke:#000000;stroke-width:1.5;"/><rect fill="none" height="191.9297" style="stroke:#000000;stroke-width:1.5;" width="292.5" x="32.75" y="402.2188"/><text fill="#000000" font-family="sans-serif" font-size="13" font-weight="bold" lengthAdjust="spacing" textLength="89" x="47.75" y="415.2856">game_move</text><polygon fill="#181818" points="274.25,436.4844,284.25,440.4844,274.25,444.4844,278.25,440.4844" style="stroke:#181818;stroke-width:1.0;"/><line style="stroke:#181818;stroke-width:1.0;" x1="69.25" x2="280.25" y1="440.4844" y2="440.4844"/><text fill="#000000" font-family="sans-serif" font-size="13" lengthAdjust="spacing" textLength="145" x="76.25" y="435.4185">Polls game status (xN)</text><polygon fill="#181818" points="80.25,465.6172,70.25,469.6172,80.25,473.6172,76.25,469.6172" style="stroke:#181818;stroke-width:1.0;"/><line style="stroke:#181818;stroke-width:1.0;" x1="74.25" x2="285.25" y1="469.6172" y2="469.6172"/><text fill="#000000" font-family="sans-serif" font-size="13" lengthAdjust="spacing" textLength="193" x="86.25" y="464.5513">Sends waiting notification (xN)</text><polygon fill="#181818" points="274.25,494.75,284.25,498.75,274.25,502.75,278.25,498.75" style="stroke:#181818;stroke-width:1.0;"/><line style="stroke:#181818;stroke-width:1.0;" x1="69.25" x2="280.25" y1="498.75" y2="498.75"/><text fill="#000000" font-family="sans-serif" font-size="13" lengthAdjust="spacing" textLength="114" x="76.25" y="493.6841">Polls game status</text><polygon fill="#181818" points="80.25,523.8828,70.25,527.8828,80.25,531.8828,76.25,527.8828" style="stroke:#181818;stroke-width:1.0;"/><line style="stroke:#181818;stroke-width:1.0;" x1="74.25" x2="285.25" y1="527.8828" y2="527.8828"/><text fill="#000000" font-family="sans-serif" font-size="13" lengthAdjust="spacing" textLength="154" x="86.25" y="522.8169">Sends move notification</text><polygon fill="#181818" points="274.25,553.0156,284.25,557.0156,274.25,561.0156,278.25,557.0156" style="stroke:#181818;stroke-width:1.0;"/><line style="stroke:#181818;stroke-width:1.0;" x1="69.25" x2="280.25" y1="557.0156" y2="557.0156"/><text fill="#000000" font-family="sans-serif" font-size="13" lengthAdjust="spacing" textLength="114" x="76.25" y="551.9497">Makes valid move</text><polygon fill="#181818" points="80.25,582.1484,70.25,586.1484,80.25,590.1484,76.25,586.1484" style="stroke:#181818;stroke-width:1.0;"/><line style="stroke:#181818;stroke-width:1.0;" x1="74.25" x2="285.25" y1="586.1484" y2="586.1484"/><text fill="#000000" font-family="sans-serif" font-size="13" lengthAdjust="spacing" textLength="169" x="86.25" y="581.0825">Move acknknowledgement</text><path d="M32.75,608.1484 L154.75,608.1484 L154.75,615.2813 L144.75,625.2813 L32.75,625.2813 L32.75,608.1484 " fill="#EEEEEE" style="stroke:#000000;stroke-width:1.5;"/><rect fill="none" height="75.3984" style="stroke:#000000;stroke-width:1.5;" width="292.5" x="32.75" y="608.1484"/><text fill="#000000" font-family="sans-serif" font-size="13" font-weight="bold" lengthAdjust="spacing" textLength="77" x="47.75" y="621.2153">game_end</text><polygon fill="#181818" points="274.25,642.4141,284.25,646.4141,274.25,650.4141,278.25,646.4141" style="stroke:#181818;stroke-width:1.0;"/><line style="stroke:#181818;stroke-width:1.0;" x1="69.25" x2="280.25" y1="646.4141" y2="646.4141"/><text fill="#000000" font-family="sans-serif" font-size="13" lengthAdjust="spacing" textLength="114" x="76.25" y="641.3481">Polls game status</text><polygon fill="#181818" points="80.25,671.5469,70.25,675.5469,80.25,679.5469,76.25,675.5469" style="stroke:#181818;stroke-width:1.0;"/><line style="stroke:#181818;stroke-width:1.0;" x1="74.25" x2="285.25" y1="675.5469" y2="675.5469"/><text fill="#000000" font-family="sans-serif" font-size="13" lengthAdjust="spacing" textLength="114" x="86.25" y="670.481">Sends final status</text><path d="M32.75,697.5469 L124.75,697.5469 L124.75,704.6797 L114.75,714.6797 L32.75,714.6797 L32.75,697.5469 " fill="#EEEEEE" style="stroke:#000000;stroke-width:1.5;"/><rect fill="none" height="59.2656" style="stroke:#000000;stroke-width:1.5;" width="185.5" x="32.75" y="697.5469"/><text fill="#000000" font-family="sans-serif" font-size="13" font-weight="bold" lengthAdjust="spacing" textLength="47" x="47.75" y="710.6138">logout</text><line style="stroke:#181818;stroke-width:1.0;" x1="69.25" x2="111.25" y1="735.8125" y2="735.8125"/><line style="stroke:#181818;stroke-width:1.0;" x1="111.25" x2="111.25" y1="735.8125" y2="748.8125"/><line style="stroke:#181818;stroke-width:1.0;" x1="70.25" x2="111.25" y1="748.8125" y2="748.8125"/><polygon fill="#181818" points="80.25,744.8125,70.25,748.8125,80.25,752.8125,76.25,748.8125" style="stroke:#181818;stroke-width:1.0;"/><text fill="#000000" font-family="sans-serif" font-size="13" lengthAdjust="spacing" textLength="130" x="76.25" y="730.7466">Drops session token</text><!--MD5=[9bf779f71efcdbac15cc9cba9f93a9f7]
@startuml workflow_4

title Login; Attempts matchmaking; Gets game;\nPlays game to completion; Logout

group login
Client -> Server: Login with valid credentials
Server -> Client: Provide session token
end

group matchmaking
Client -> Server: Request matchmaking ticket
Server -> Client: Send matchmaking ticket
Client -> Server: Polls for update (xN)
Server -> Client: Sends waiting notification (xN)
Client -> Server: Polls for update
Server -> Client: Sends game handle
end

group game_move
Client -> Server: Polls game status (xN)
Server -> Client: Sends waiting notification (xN)
Client -> Server: Polls game status
Server -> Client: Sends move notification
Client -> Server: Makes valid move
Server -> Client: Move acknknowledgement
end

group game_end
Client -> Server: Polls game status
Server -> Client: Sends final status
end

group logout
Client -> Client: Drops session token
end

@enduml

PlantUML version 1.2022.7(Mon Aug 22 13:01:30 EDT 2022)
(GPL source distribution)
Java Runtime: OpenJDK Runtime Environment
JVM: OpenJDK 64-Bit Server VM
Default Encoding: UTF-8
Language: en
Country: null
--></g></svg>