<?xml version="1.0" encoding="UTF-8" standalone="no"?><svg xmlns="http://www.w3.org/2000/svg" xmlns:xlink="http://www.w3.org/1999/xlink" contentStyleType="text/css" height="497px" preserveAspectRatio="none" style="width:445px;height:497px;background:#FFFFFF;" version="1.1" viewBox="0 0 445 497" width="445px" zoomAndPan="magnify"><defs/><g><rect fill="none" height="26.2969" id="_title" style="stroke:none;stroke-width:1.0;" width="427" x="5" y="10"/><text fill="#000000" font-family="sans-serif" font-size="14" font-weight="bold" lengthAdjust="spacing" textLength="417" x="10" y="27.9951">Login; Attempts matchmaking; Cancels matchmaking</text><rect fill="none" height="75.3984" style="stroke:#000000;stroke-width:1.5;" width="297.5" x="70.25" y="90.5938"/><rect fill="none" height="191.9297" style="stroke:#000000;stroke-width:1.5;" width="297.5" x="70.25" y="179.9922"/><rect fill="none" height="59.2656" style="stroke:#000000;stroke-width:1.5;" width="185.5" x="70.25" y="385.9219"/><line style="stroke:#181818;stroke-width:0.5;stroke-dasharray:5.0,5.0;" x1="106.25" x2="106.25" y1="73.5938" y2="462.1875"/><line style="stroke:#181818;stroke-width:0.5;stroke-dasharray:5.0,5.0;" x1="328.75" x2="328.75" y1="73.5938" y2="462.1875"/><rect fill="#E2E2F0" height="30.2969" rx="2.5" ry="2.5" style="stroke:#181818;stroke-width:0.5;" width="53" x="80.25" y="42.2969"/><text fill="#000000" font-family="sans-serif" font-size="14" lengthAdjust="spacing" textLength="39" x="87.25" y="62.292">Client</text><rect fill="#E2E2F0" height="30.2969" rx="2.5" ry="2.5" style="stroke:#181818;stroke-width:0.5;" width="53" x="80.25" y="461.1875"/><text fill="#000000" font-family="sans-serif" font-size="14" lengthAdjust="spacing" textLength="39" x="87.25" y="481.1826">Client</text><rect fill="#E2E2F0" height="30.2969" rx="2.5" ry="2.5" style="stroke:#181818;stroke-width:0.5;" width="58" x="299.75" y="42.2969"/><text fill="#000000" font-family="sans-serif" font-size="14" lengthAdjust="spacing" textLength="44" x="306.75" y="62.292">Server</text><rect fill="#E2E2F0" height="30.2969" rx="2.5" ry="2.5" style="stroke:#181818;stroke-width:0.5;" width="58" x="299.75" y="461.1875"/><text fill="#000000" font-family="sans-serif" font-size="14" lengthAdjust="spacing" textLength="44" x="306.75" y="481.1826">Server</text><path d="M70.25,90.5938 L151.25,90.5938 L151.25,97.7266 L141.25,107.7266 L70.25,107.7266 L70.25,90.5938 " fill="#EEEEEE" style="stroke:#000000;stroke-width:1.5;"/><rect fill="none" height="75.3984" style="stroke:#000000;stroke-width:1.5;" width="297.5" x="70.25" y="90.5938"/><text fill="#000000" font-family="sans-serif" font-size="13" font-weight="bold" lengthAdjust="spacing" textLength="36" x="85.25" y="103.6606">login</text><polygon fill="#181818" points="316.75,124.8594,326.75,128.8594,316.75,132.8594,320.75,128.8594" style="stroke:#181818;stroke-width:1.0;"/><line style="stroke:#181818;stroke-width:1.0;" x1="106.75" x2="322.75" y1="128.8594" y2="128.8594"/><text fill="#000000" font-family="sans-serif" font-size="13" lengthAdjust="spacing" textLength="170" x="113.75" y="123.7935">Login with valid credentials</text><polygon fill="#181818" points="117.75,153.9922,107.75,157.9922,117.75,161.9922,113.75,157.9922" style="stroke:#181818;stroke-width:1.0;"/><line style="stroke:#181818;stroke-width:1.0;" x1="111.75" x2="327.75" y1="157.9922" y2="157.9922"/><text fill="#000000" font-family="sans-serif" font-size="13" lengthAdjust="spacing" textLength="139" x="123.75" y="152.9263">Provide session token</text><path d="M70.25,179.9922 L216.25,179.9922 L216.25,187.125 L206.25,197.125 L70.25,197.125 L70.25,179.9922 " fill="#EEEEEE" style="stroke:#000000;stroke-width:1.5;"/><rect fill="none" height="191.9297" style="stroke:#000000;stroke-width:1.5;" width="297.5" x="70.25" y="179.9922"/><text fill="#000000" font-family="sans-serif" font-size="13" font-weight="bold" lengthAdjust="spacing" textLength="101" x="85.25" y="193.0591">matchmaking</text><polygon fill="#181818" points="316.75,214.2578,326.75,218.2578,316.75,222.2578,320.75,218.2578" style="stroke:#181818;stroke-width:1.0;"/><line style="stroke:#181818;stroke-width:1.0;" x1="106.75" x2="322.75" y1="218.2578" y2="218.2578"/><text fill="#000000" font-family="sans-serif" font-size="13" lengthAdjust="spacing" textLength="183" x="113.75" y="213.1919">Request matchmaking ticket</text><polygon fill="#181818" points="117.75,243.3906,107.75,247.3906,117.75,251.3906,113.75,247.3906" style="stroke:#181818;stroke-width:1.0;"/><line style="stroke:#181818;stroke-width:1.0;" x1="111.75" x2="327.75" y1="247.3906" y2="247.3906"/><text fill="#000000" font-family="sans-serif" font-size="13" lengthAdjust="spacing" textLength="164" x="123.75" y="242.3247">Send matchmaking ticket</text><polygon fill="#181818" points="316.75,272.5234,326.75,276.5234,316.75,280.5234,320.75,276.5234" style="stroke:#181818;stroke-width:1.0;"/><line style="stroke:#181818;stroke-width:1.0;" x1="106.75" x2="322.75" y1="276.5234" y2="276.5234"/><text fill="#000000" font-family="sans-serif" font-size="13" lengthAdjust="spacing" textLength="130" x="113.75" y="271.4575">Polls for update (xN)</text><polygon fill="#181818" points="117.75,301.6563,107.75,305.6563,117.75,309.6563,113.75,305.6563" style="stroke:#181818;stroke-width:1.0;"/><line style="stroke:#181818;stroke-width:1.0;" x1="111.75" x2="327.75" y1="305.6563" y2="305.6563"/><text fill="#000000" font-family="sans-serif" font-size="13" lengthAdjust="spacing" textLength="193" x="123.75" y="300.5903">Sends waiting notification (xN)</text><polygon fill="#181818" points="316.75,330.7891,326.75,334.7891,316.75,338.7891,320.75,334.7891" style="stroke:#181818;stroke-width:1.0;"/><line style="stroke:#181818;stroke-width:1.0;" x1="106.75" x2="322.75" y1="334.7891" y2="334.7891"/><text fill="#000000" font-family="sans-serif" font-size="13" lengthAdjust="spacing" textLength="142" x="113.75" y="329.7231">Cancels matchmaking</text><polygon fill="#181818" points="117.75,359.9219,107.75,363.9219,117.75,367.9219,113.75,363.9219" style="stroke:#181818;stroke-width:1.0;"/><line style="stroke:#181818;stroke-width:1.0;" x1="111.75" x2="327.75" y1="363.9219" y2="363.9219"/><text fill="#000000" font-family="sans-serif" font-size="13" lengthAdjust="spacing" textLength="198" x="123.75" y="358.856">Cancellation acknowledgement</text><path d="M70.25,385.9219 L162.25,385.9219 L162.25,393.0547 L152.25,403.0547 L70.25,403.0547 L70.25,385.9219 " fill="#EEEEEE" style="stroke:#000000;stroke-width:1.5;"/><rect fill="none" height="59.2656" style="stroke:#000000;stroke-width:1.5;" width="185.5" x="70.25" y="385.9219"/><text fill="#000000" font-family="sans-serif" font-size="13" font-weight="bold" lengthAdjust="spacing" textLength="47" x="85.25" y="398.9888">logout</text><line style="stroke:#181818;stroke-width:1.0;" x1="106.75" x2="148.75" y1="424.1875" y2="424.1875"/><line style="stroke:#181818;stroke-width:1.0;" x1="148.75" x2="148.75" y1="424.1875" y2="437.1875"/><line style="stroke:#181818;stroke-width:1.0;" x1="107.75" x2="148.75" y1="437.1875" y2="437.1875"/><polygon fill="#181818" points="117.75,433.1875,107.75,437.1875,117.75,441.1875,113.75,437.1875" style="stroke:#181818;stroke-width:1.0;"/><text fill="#000000" font-family="sans-serif" font-size="13" lengthAdjust="spacing" textLength="130" x="113.75" y="419.1216">Drops session token</text><!--MD5=[e16228914054e59f313b3fe23070f842]
@startuml workflow_2

title Login; Attempts matchmaking; Cancels matchmaking

group login
Client -> Server: Login with valid credentials
Server -> Client: Provide session token
end

group matchmaking
Client -> Server: Request matchmaking ticket
Server -> Client: Send matchmaking ticket
Client -> Server: Polls for update (xN)
Server -> Client: Sends waiting notification (xN)
Client -> Server: Cancels matchmaking
Server -> Client: Cancellation acknowledgement
end

group logout
Client -> Client: Drops session token
end

@enduml

PlantUML version 1.2022.7(Mon Aug 22 13:01:30 EDT 2022)
(GPL source distribution)
Java Runtime: OpenJDK Runtime Environment
JVM: OpenJDK 64-Bit Server VM
Default Encoding: UTF-8
Language: en
Country: null
--></g></svg>