<?xml version="1.0" encoding="UTF-8" standalone="no"?><svg xmlns="http://www.w3.org/2000/svg" xmlns:xlink="http://www.w3.org/1999/xlink" contentStyleType="text/css" height="439px" preserveAspectRatio="none" style="width:376px;height:439px;background:#FFFFFF;" version="1.1" viewBox="0 0 376 439" width="376px" zoomAndPan="magnify"><defs/><g><rect fill="none" height="26.2969" id="_title" style="stroke:none;stroke-width:1.0;" width="358" x="5.25" y="10"/><text fill="#000000" font-family="sans-serif" font-size="14" font-weight="bold" lengthAdjust="spacing" textLength="348" x="10.25" y="27.9951">Login; Attempts matchmaking; Stops polling</text><rect fill="none" height="75.3984" style="stroke:#000000;stroke-width:1.5;" width="292.5" x="10" y="90.5938"/><rect fill="none" height="133.6641" style="stroke:#000000;stroke-width:1.5;" width="292.5" x="10" y="179.9922"/><rect fill="none" height="59.2656" style="stroke:#000000;stroke-width:1.5;" width="135" x="224.5" y="327.6563"/><line style="stroke:#181818;stroke-width:0.5;stroke-dasharray:5.0,5.0;" x1="46" x2="46" y1="73.5938" y2="403.9219"/><line style="stroke:#181818;stroke-width:0.5;stroke-dasharray:5.0,5.0;" x1="263.5" x2="263.5" y1="73.5938" y2="403.9219"/><rect fill="#E2E2F0" height="30.2969" rx="2.5" ry="2.5" style="stroke:#181818;stroke-width:0.5;" width="53" x="20" y="42.2969"/><text fill="#000000" font-family="sans-serif" font-size="14" lengthAdjust="spacing" textLength="39" x="27" y="62.292">Client</text><rect fill="#E2E2F0" height="30.2969" rx="2.5" ry="2.5" style="stroke:#181818;stroke-width:0.5;" width="53" x="20" y="402.9219"/><text fill="#000000" font-family="sans-serif" font-size="14" lengthAdjust="spacing" textLength="39" x="27" y="422.917">Client</text><rect fill="#E2E2F0" height="30.2969" rx="2.5" ry="2.5" style="stroke:#181818;stroke-width:0.5;" width="58" x="234.5" y="42.2969"/><text fill="#000000" font-family="sans-serif" font-size="14" lengthAdjust="spacing" textLength="44" x="241.5" y="62.292">Server</text><rect fill="#E2E2F0" height="30.2969" rx="2.5" ry="2.5" style="stroke:#181818;stroke-width:0.5;" width="58" x="234.5" y="402.9219"/><text fill="#000000" font-family="sans-serif" font-size="14" lengthAdjust="spacing" textLength="44" x="241.5" y="422.917">Server</text><path d="M10,90.5938 L91,90.5938 L91,97.7266 L81,107.7266 L10,107.7266 L10,90.5938 " fill="#EEEEEE" style="stroke:#000000;stroke-width:1.5;"/><rect fill="none" height="75.3984" style="stroke:#000000;stroke-width:1.5;" width="292.5" x="10" y="90.5938"/><text fill="#000000" font-family="sans-serif" font-size="13" font-weight="bold" lengthAdjust="spacing" textLength="36" x="25" y="103.6606">login</text><polygon fill="#181818" points="251.5,124.8594,261.5,128.8594,251.5,132.8594,255.5,128.8594" style="stroke:#181818;stroke-width:1.0;"/><line style="stroke:#181818;stroke-width:1.0;" x1="46.5" x2="257.5" y1="128.8594" y2="128.8594"/><text fill="#000000" font-family="sans-serif" font-size="13" lengthAdjust="spacing" textLength="170" x="53.5" y="123.7935">Login with valid credentials</text><polygon fill="#181818" points="57.5,153.9922,47.5,157.9922,57.5,161.9922,53.5,157.9922" style="stroke:#181818;stroke-width:1.0;"/><line style="stroke:#181818;stroke-width:1.0;" x1="51.5" x2="262.5" y1="157.9922" y2="157.9922"/><text fill="#000000" font-family="sans-serif" font-size="13" lengthAdjust="spacing" textLength="139" x="63.5" y="152.9263">Provide session token</text><path d="M10,179.9922 L156,179.9922 L156,187.125 L146,197.125 L10,197.125 L10,179.9922 " fill="#EEEEEE" style="stroke:#000000;stroke-width:1.5;"/><rect fill="none" height="133.6641" style="stroke:#000000;stroke-width:1.5;" width="292.5" x="10" y="179.9922"/><text fill="#000000" font-family="sans-serif" font-size="13" font-weight="bold" lengthAdjust="spacing" textLength="101" x="25" y="193.0591">matchmaking</text><polygon fill="#181818" points="251.5,214.2578,261.5,218.2578,251.5,222.2578,255.5,218.2578" style="stroke:#181818;stroke-width:1.0;"/><line style="stroke:#181818;stroke-width:1.0;" x1="46.5" x2="257.5" y1="218.2578" y2="218.2578"/><text fill="#000000" font-family="sans-serif" font-size="13" lengthAdjust="spacing" textLength="183" x="53.5" y="213.1919">Request matchmaking ticket</text><polygon fill="#181818" points="57.5,243.3906,47.5,247.3906,57.5,251.3906,53.5,247.3906" style="stroke:#181818;stroke-width:1.0;"/><line style="stroke:#181818;stroke-width:1.0;" x1="51.5" x2="262.5" y1="247.3906" y2="247.3906"/><text fill="#000000" font-family="sans-serif" font-size="13" lengthAdjust="spacing" textLength="164" x="63.5" y="242.3247">Send matchmaking ticket</text><polygon fill="#181818" points="251.5,272.5234,261.5,276.5234,251.5,280.5234,255.5,276.5234" style="stroke:#181818;stroke-width:1.0;"/><line style="stroke:#181818;stroke-width:1.0;" x1="46.5" x2="257.5" y1="276.5234" y2="276.5234"/><text fill="#000000" font-family="sans-serif" font-size="13" lengthAdjust="spacing" textLength="130" x="53.5" y="271.4575">Polls for update (xN)</text><polygon fill="#181818" points="57.5,301.6563,47.5,305.6563,57.5,309.6563,53.5,305.6563" style="stroke:#181818;stroke-width:1.0;"/><line style="stroke:#181818;stroke-width:1.0;" x1="51.5" x2="262.5" y1="305.6563" y2="305.6563"/><text fill="#000000" font-family="sans-serif" font-size="13" lengthAdjust="spacing" textLength="193" x="63.5" y="300.5903">Sends waiting notification (xN)</text><path d="M224.5,327.6563 L326.5,327.6563 L326.5,334.7891 L316.5,344.7891 L224.5,344.7891 L224.5,327.6563 " fill="#EEEEEE" style="stroke:#000000;stroke-width:1.5;"/><rect fill="none" height="59.2656" style="stroke:#000000;stroke-width:1.5;" width="135" x="224.5" y="327.6563"/><text fill="#000000" font-family="sans-serif" font-size="13" font-weight="bold" lengthAdjust="spacing" textLength="57" x="239.5" y="340.7231">timeout</text><line style="stroke:#181818;stroke-width:1.0;" x1="263.5" x2="305.5" y1="365.9219" y2="365.9219"/><line style="stroke:#181818;stroke-width:1.0;" x1="305.5" x2="305.5" y1="365.9219" y2="378.9219"/><line style="stroke:#181818;stroke-width:1.0;" x1="264.5" x2="305.5" y1="378.9219" y2="378.9219"/><polygon fill="#181818" points="274.5,374.9219,264.5,378.9219,274.5,382.9219,270.5,378.9219" style="stroke:#181818;stroke-width:1.0;"/><text fill="#000000" font-family="sans-serif" font-size="13" lengthAdjust="spacing" textLength="77" x="270.5" y="360.856">Drops ticket</text><!--MD5=[ce3a2488581d93f6278d5590b62e80a9]
@startuml workflow_3

title Login; Attempts matchmaking; Stops polling

group login
Client -> Server: Login with valid credentials
Server -> Client: Provide session token
end

group matchmaking
Client -> Server: Request matchmaking ticket
Server -> Client: Send matchmaking ticket
Client -> Server: Polls for update (xN)
Server -> Client: Sends waiting notification (xN)
end

group timeout
Server -> Server: Drops ticket
end

@enduml

PlantUML version 1.2022.7(Mon Aug 22 13:01:30 EDT 2022)
(GPL source distribution)
Java Runtime: OpenJDK Runtime Environment
JVM: OpenJDK 64-Bit Server VM
Default Encoding: UTF-8
Language: en
Country: null
--></g></svg>