<?xml version="1.0" encoding="UTF-8" standalone="no"?><svg xmlns="http://www.w3.org/2000/svg" xmlns:xlink="http://www.w3.org/1999/xlink" contentStyleType="text/css" height="388px" preserveAspectRatio="none" style="width:1000px;height:388px;background:#FFFFFF;" version="1.1" viewBox="0 0 1000 388" width="1000px" zoomAndPan="magnify"><defs/><g><rect fill="none" height="26.2969" id="_title" style="stroke:none;stroke-width:1.0;" width="127" x="429.75" y="5"/><text fill="#000000" font-family="sans-serif" font-size="14" font-weight="bold" lengthAdjust="spacing" textLength="117" x="434.75" y="22.9951">Pages Diagram</text><!--MD5=[c72e14692f063a08d1023b5b76acc947]
entity M--><g id="elem_M"><rect fill="#F1F1F1" height="52.5938" rx="2.5" ry="2.5" style="stroke:#181818;stroke-width:0.5;" width="135" x="232" y="86.1569"/><text fill="#000000" font-family="sans-serif" font-size="14" lengthAdjust="spacing" textLength="115" x="242" y="109.152">Main and Games</text><text fill="#000000" font-family="sans-serif" font-size="14" lengthAdjust="spacing" textLength="86" x="242" y="125.4489">(/index.html)</text></g><!--MD5=[62e43bbec3da0a8e3edd1560198742d1]
entity UC--><g id="elem_UC"><rect fill="#F1F1F1" height="52.5938" rx="2.5" ry="2.5" style="stroke:#181818;stroke-width:0.5;" width="129" x="728" y="86.1569"/><text fill="#000000" font-family="sans-serif" font-size="14" lengthAdjust="spacing" textLength="94" x="738" y="109.152">User Creation</text><text fill="#000000" font-family="sans-serif" font-size="14" lengthAdjust="spacing" textLength="109" x="738" y="125.4489">(/newuser.html)</text></g><!--MD5=[d7ce754bf51745abf5c4249280c12a40]
entity UM--><g id="elem_UM"><rect fill="#F1F1F1" height="52.5938" rx="2.5" ry="2.5" style="stroke:#181818;stroke-width:0.5;" width="193" x="500" y="86.1569"/><text fill="#000000" font-family="sans-serif" font-size="14" lengthAdjust="spacing" textLength="118" x="510" y="109.152">User Modification</text><text fill="#000000" font-family="sans-serif" font-size="14" lengthAdjust="spacing" textLength="173" x="510" y="125.4489">(/user/{username}.html)</text></g><!--MD5=[c9884a940ca17747de6480392133742b]
entity UL--><g id="elem_UL"><rect fill="#F1F1F1" height="52.5938" rx="2.5" ry="2.5" style="stroke:#181818;stroke-width:0.5;" width="102" x="892.5" y="86.1569"/><text fill="#000000" font-family="sans-serif" font-size="14" lengthAdjust="spacing" textLength="73" x="902.5" y="109.152">User Login</text><text fill="#000000" font-family="sans-serif" font-size="14" lengthAdjust="spacing" textLength="82" x="902.5" y="125.4489">(/login.html)</text></g><!--MD5=[cc78246f35cf4a7527ee40fb15455c56]
entity MM--><g id="elem_MM"><rect fill="#F1F1F1" height="52.5938" rx="2.5" ry="2.5" style="stroke:#181818;stroke-width:0.5;" width="251" x="7" y="216.1569"/><text fill="#000000" font-family="sans-serif" font-size="14" lengthAdjust="spacing" textLength="92" x="17" y="239.152">Matchmaking</text><text fill="#000000" font-family="sans-serif" font-size="14" lengthAdjust="spacing" textLength="231" x="17" y="255.4489">(/matchmaking/{game}/{ticket})</text></g><!--MD5=[92ed0b7d55449354be29483e00621f1b]
entity C4--><g id="elem_C4"><rect fill="#F1F1F1" height="52.5938" rx="2.5" ry="2.5" style="stroke:#181818;stroke-width:0.5;" width="257" x="200" y="330.1569"/><text fill="#000000" font-family="sans-serif" font-size="14" lengthAdjust="spacing" textLength="68" x="210" y="353.152">Connect4</text><text fill="#000000" font-family="sans-serif" font-size="14" lengthAdjust="spacing" textLength="237" x="210" y="369.4489">(/games/connect4/{handle}.html)</text></g><!--MD5=[b1bbe39777f3b660f585bf1b1badebd4]
reverse link UC to M--><g id="link_UC_M"><path d="M729.38,84.4369 C719.34,81.0069 708.93,78.0569 698.83,76.1569 C583.55,54.4869 447.02,77.1569 367.16,95.1869 " fill="none" id="UC-backto-M" style="stroke:#181818;stroke-width:1.0;"/><polygon fill="#181818" points="734.27,86.1569,727.1058,79.3986,729.5529,84.4988,724.4528,86.9459,734.27,86.1569" style="stroke:#181818;stroke-width:1.0;"/></g><!--MD5=[1182285857906caf93bc0c2c4ce6e40d]
reverse link M to UC--><g id="link_M_UC"><path d="M372.41,89.8369 C450.81,68.5669 578.78,43.2969 687.17,66.1569 C706.43,70.2169 726.47,78.0369 743.83,86.1269 " fill="none" id="M-backto-UC" style="stroke:#181818;stroke-width:1.0;"/><polygon fill="#181818" points="367.32,91.2369,377.0598,92.6986,372.1398,89.9068,374.9316,84.9868,367.32,91.2369" style="stroke:#181818;stroke-width:1.0;"/></g><!--MD5=[e483050753cc64c7a331a651876d09fc]
reverse link UL to M--><g id="link_UL_M"><path d="M888.74,84.1969 C880.26,80.8769 871.45,78.0169 862.83,76.1569 C782.75,58.8769 575.74,68.5769 494.17,76.1569 C451.54,80.1169 404.33,88.8569 367.08,96.7969 " fill="none" id="UL-backto-M" style="stroke:#181818;stroke-width:1.0;"/><polygon fill="#181818" points="893.42,86.0769,886.5756,78.9949,888.7846,84.2027,883.5768,86.4117,893.42,86.0769" style="stroke:#181818;stroke-width:1.0;"/></g><!--MD5=[ee4b8aeeb16ed22ef0531c6135c6a9c2]
reverse link M to UL--><g id="link_M_UL"><path d="M372.38,92.0869 C411.58,82.0769 460.95,71.1469 505.83,66.1569 C543.97,61.9169 813.84,57.2869 851.17,66.1569 C868.28,70.2269 885.82,77.9869 900.96,86.0269 " fill="none" id="M-backto-UL" style="stroke:#181818;stroke-width:1.0;"/><polygon fill="#181818" points="367.16,93.4269,376.8718,95.0641,372.0031,92.184,374.8832,87.3152,367.16,93.4269" style="stroke:#181818;stroke-width:1.0;"/></g><!--MD5=[8d6d6c3cdb31a2d4558f7aed4674361a]
link M to UM--><g id="link_M_UM"><path d="M367.27,112.6569 C404.94,112.6569 452.57,112.6569 494.65,112.6569 " fill="none" id="M-to-UM" style="stroke:#181818;stroke-width:1.0;"/><polygon fill="#181818" points="499.75,112.6569,490.75,108.6569,494.75,112.6569,490.75,116.6569,499.75,112.6569" style="stroke:#181818;stroke-width:1.0;"/><text fill="#000000" font-family="sans-serif" font-size="13" lengthAdjust="spacing" textLength="96" x="385.5" y="105.7238">(requires login)</text></g><!--MD5=[73bf3317f91bea9087fb63cbb9b60bbf]
reverse link M to UM--><g id="link_M_UM"><path d="M372.35,114.8969 C385.33,115.2069 398.73,115.4869 411.33,115.6569 C440.11,116.0469 471.39,115.7969 499.92,115.3069 " fill="none" id="M-backto-UM" style="stroke:#181818;stroke-width:1.0;"/><polygon fill="#181818" points="367.21,114.7669,376.1042,118.9969,372.2083,114.8954,376.3098,110.9995,367.21,114.7669" style="stroke:#181818;stroke-width:1.0;"/></g><!--MD5=[3868d271dec2c03f38c49d0fad2edb55]
link M to MM--><g id="link_M_MM"><path d="M231.75,126.3869 C204.86,134.5469 175.61,147.7969 155.5,169.1569 C144.86,180.4669 139.14,196.6769 136.07,210.8969 " fill="none" id="M-to-MM" style="stroke:#181818;stroke-width:1.0;"/><polygon fill="#181818" points="135.05,216.0369,140.7238,207.9866,136.0223,211.1323,132.8766,206.4308,135.05,216.0369" style="stroke:#181818;stroke-width:1.0;"/><text fill="#000000" font-family="sans-serif" font-size="13" lengthAdjust="spacing" textLength="96" x="156.5" y="182.2238">(requires login)</text></g><!--MD5=[eb44cf659490f4d304d542f8cf46eb2d]
reverse link M to MM--><g id="link_M_MM"><path d="M287.28,143.9369 C280.29,158.2269 270.33,174.6269 257.5,186.1569 C243.9,198.3769 227.17,208.2669 210.43,216.1169 " fill="none" id="M-backto-MM" style="stroke:#181818;stroke-width:1.0;"/><polygon fill="#181818" points="289.54,139.1769,282.0749,145.6012,287.4014,143.6964,289.3062,149.023,289.54,139.1769" style="stroke:#181818;stroke-width:1.0;"/></g><!--MD5=[44e736606ae72060f1bb81b52e7b8e0e]
link M to C4--><g id="link_M_C4"><path d="M302.6,139.5569 C307.99,184.4969 319.04,276.7169 324.81,324.8669 " fill="none" id="M-to-C4" style="stroke:#181818;stroke-width:1.0;"/><polygon fill="#181818" points="325.42,329.9469,328.3363,320.5397,324.8333,324.9814,320.3916,321.4784,325.42,329.9469" style="stroke:#181818;stroke-width:1.0;"/><text fill="#000000" font-family="sans-serif" font-size="13" lengthAdjust="spacing" textLength="96" x="319.5" y="239.7238">(requires login)</text><text fill="#000000" font-family="sans-serif" font-size="13" lengthAdjust="spacing" textLength="83" x="326" y="254.8566">(open game)</text></g><!--MD5=[e7258f1fafb0fb321a81bae1cfec5949]
link C4 to M--><g id="link_C4_M"><path d="M370.73,329.9169 C391.05,314.9769 413.37,294.1669 424.5,269.1569 C434.08,247.6369 434.58,237.4469 424.5,216.1569 C409.57,184.6169 379.65,159.5269 352.83,142.0769 " fill="none" id="C4-to-M" style="stroke:#181818;stroke-width:1.0;"/><polygon fill="#181818" points="348.56,139.3369,353.9803,147.5601,352.7701,142.0342,358.2959,140.824,348.56,139.3369" style="stroke:#181818;stroke-width:1.0;"/></g><!--MD5=[59e4cf3ee9d960c417d3e47265c616c7]
link MM to C4--><g id="link_MM_C4"><path d="M177.47,269.3569 C207.84,286.7069 247.95,309.6269 279.2,327.4869 " fill="none" id="MM-to-C4" style="stroke:#181818;stroke-width:1.0;"/><polygon fill="#181818" points="283.74,330.0769,277.916,322.1345,279.4005,327.5931,273.942,329.0777,283.74,330.0769" style="stroke:#181818;stroke-width:1.0;"/></g><!--MD5=[550f198dbc184923a60b4e8742307571]
@startuml pages

title Pages Diagram

skinparam componentStyle rectangle


component "Main and Games\n(/index.html)" as M
component "User Creation\n(/newuser.html)" as UC
component "User Modification\n(/user/{username}.html)" as UM
component "User Login\n(/login.html)" as UL
component "Matchmaking\n(/matchmaking/{game}/{ticket})" as MM
component "Connect4\n(/games/connect4/{handle}.html)" as C4

M -left-> UC
M <-right- UC

M -left-> UL
M <-right- UL

M -right-> UM: "(requires login)"
UM -left-> M

M -down-> MM: "(requires login)"
MM -up-> M


M - -> C4: "(requires login)\n(open game)"
MM -down-> C4
C4 - -> M

@enduml

PlantUML version 1.2022.7(Mon Aug 22 13:01:30 EDT 2022)
(GPL source distribution)
Java Runtime: OpenJDK Runtime Environment
JVM: OpenJDK 64-Bit Server VM
Default Encoding: UTF-8
Language: en
Country: null
--></g></svg>